<svg id="Слой_1" data-name="Слой 1" xmlns="http://www.w3.org/2000/svg" xmlns:xlink="http://www.w3.org/1999/xlink" viewBox="0 0 1440 447"><defs><style>.cls-1{fill:url(#Безымянный_градиент);}.cls-2{fill:#6e8dff;}.cls-3{fill:#6c8bff;}.cls-4{fill:#567aff;}</style><linearGradient id="Безымянный_градиент" x1="835.02" y1="542.98" x2="648.6" y2="26.79" gradientTransform="matrix(1, 0, 0, -1, 0, 448)" gradientUnits="userSpaceOnUse"><stop offset="0" stop-color="#6888ff"/><stop offset="1" stop-color="#5e80ff"/></linearGradient></defs><title>bg</title><rect class="cls-1" width="1440" height="447"/><path class="cls-2" d="M1146.71,192c-37.83,0-68.5,31.27-68.5,69.85h137C1215.2,223.27,1184.53,192,1146.71,192Z"/><path class="cls-3" d="M1203.1,225.48c-83.39,0-151,68.29-151,152.52h302C1354.09,293.77,1286.49,225.48,1203.1,225.48Z"/><path class="cls-4" d="M1026,251.52a81.93,81.93,0,0,0-82,81.84h164A81.93,81.93,0,0,0,1026,251.52Z"/><path class="cls-4" d="M1311.22,273.84c-31.92,0-57.79,26.65-57.79,59.52H1369C1369,300.49,1343.13,273.84,1311.22,273.84Z"/><path class="cls-2" d="M149.5,72C111.67,72,81,103.27,81,141.85H218C218,103.27,187.32,72,149.5,72Z"/><path class="cls-3" d="M217.5,90c-43.35,0-78.5,35.37-78.5,79H296C296,125.37,260.85,90,217.5,90Z"/><path class="cls-4" d="M249.5,321c-38.38,0-69.5,31.34-69.5,70H319C319,352.34,287.88,321,249.5,321Z"/><path class="cls-4" d="M154.5,326A25.25,25.25,0,0,0,129,351h51A25.25,25.25,0,0,0,154.5,326Z"/><path class="cls-4" d="M129.79,147C97.87,147,72,173.65,72,206.52H187.57C187.57,173.65,161.7,147,129.79,147Z"/></svg>